# AST/ASF file generated using VICON BodyLanguage
# -----------------------------------------------
:version 1.10
:name VICON
:units
  mass 1.0
  length 0.45
  angle deg
:documentation
   .ast/.asf automatically generated from VICON data using
   VICON BodyBuilder and BodyLanguage model FoxedUp or BRILLIANT.MOD
:root
   order TX TY TZ RX RY RZ
   axis XYZ
   position 0 0 0  
   orientation 0 0 0 
:bonedata
  begin
     id 1 
     name lhipjoint
     direction 0.575328 -0.747301 0.332475 
     length 2.40933 
     axis 0 0 0  XYZ
  end
  begin
     id 2 
     name lfemur
     direction 0.34202 -0.939693 0  
     length 7.31453  
     axis 0 0 20  XYZ
    dof rx ry rz
    limits (-160.0 20.0)
           (-70.0 70.0)
           (-60.0 70.0)
  end
  begin
     id 3 
     name ltibia
     direction 0.34202 -0.939693 0   
     length 7.82185   
     axis 0 0 20   XYZ
    dof rx
    limits (-10.0 170.0)
  end
  begin
     id 4 
     name lfoot
     direction 0.0795993 -0.218697 0.972541   
     length 2.19173   
     axis -90 7.62852e-016 20   XYZ
    dof rx rz
    limits (-45.0 90.0)
           (-70.0 20.0)
  end
  begin
     id 5 
     name ltoes
     direction 1.53537e-011 -4.21894e-011 1   
     length 1.10023   
     axis -90 7.62852e-016 20   XYZ
    dof rx
    limits (-90.0 20.0)
  end
  begin
     id 6 
     name rhipjoint
     direction -0.513884 -0.783789 0.348708   
     length 2.29716  
     axis 0 0 0  XYZ 
  end
  begin
     id 7 
     name rfemur
     direction -0.34202 -0.939693 0   
     length 7.59573   
     axis 0 0 -20   XYZ
    dof rx ry rz
    limits (-160.0 20.0)
           (-70.0 70.0)
           (-70.0 60.0)
  end
  begin
     id 8 
     name rtibia
     direction -0.34202 -0.939693 0   
     length 7.66402   
     axis 0 0 -20   XYZ
    dof rx
    limits (-10.0 170.0)
 end
 begin
     id 9 
     name rfoot
     direction -0.137793 -0.378584 0.915253   
     length 2.27056  
     axis -90 -7.62852e-016 -20   XYZ
    dof rx rz
    limits (-45.0 90.0)
           (-20.0 70.0)
  end
  begin
     id 10 
     name rtoes
     direction -1.53493e-011 -4.22159e-011 1   
     length 1.11766   
     axis -90 -7.62852e-016 -20   XYZ
    dof rx
    limits (-90.0 20.0)
  end
  begin
     id 11 
     name lowerback
     direction -0.00732775 0.998356 -0.05685   
     length 2.16513   
     axis 0 0 0   XYZ
    dof rx ry rz
    limits (-20.0 45.0)
           (-30.0 30.0)
           (-30.0 30.0)
  end
  begin
     id 12 
     name upperback
     direction 0.0218081 0.999627 -0.0164647   
     length 2.16755   
     axis 0 0 0   XYZ
    dof rx ry rz
    limits (-20.0 45.0)
           (-30.0 30.0)
           (-30.0 30.0)
  end
  begin
     id 13 
     name thorax
     direction 0.02365 0.999661 0.0108914   
     length 2.16932   
     axis 0 0 0   XYZ
    dof rx ry rz
    limits (-20.0 45.0)
           (-30.0 30.0)
           (-30.0 30.0)
  end
  begin
     id 14 
     name lowerneck
     direction -0.0523929 0.978385 0.200044   
     length 1.63877   
     axis 0 0 0   XYZ
    dof rx ry rz
    limits (-20.0 45.0)
           (-30.0 30.0)
           (-30.0 30.0)
  end
  begin
     id 15 
     name upperneck
     direction 0.0448674 0.981321 -0.187074   
     length 1.69014   
     axis 0 0 0   XYZ
    dof rx ry rz
    limits (-20.0 45.0)
           (-30.0 30.0)
           (-30.0 30.0)
  end
  begin
     id 16
     name head
     direction 0.0199089 0.996118 -0.0857429  
     length 1.70094  
     axis 0 0 0   XYZ
    dof rx ry rz
    limits (-20.0 45.0)
           (-30.0 30.0)
           (-30.0 30.0)
  end
  begin
     id 17 
     name lclavicle
     direction 0.940366 0.30191 -0.156722  
     length 3.37521  
     axis 0 0 0   XYZ
    dof ry rz
    limits (-20.0 10.0)
           (0.0 20.0)
  end
  begin
     id 18 
     name lhumerus
     direction 1 -4.4897e-011 -1.7911e-027   
     length 5.25287   
     axis 180 -30 -90   XYZ
    dof rx ry rz
    limits (-60.0 90.0)
           (-90.0 90.0)
           (-90.0 90.0)
  end
  begin
     id 19
     name lradius
     direction 1 -4.48951e-011 1.04424e-027   
     length 3.51014   
     axis 180 -30 -90   XYZ
    dof rx
    limits (-10.0 170.0)
  end
  begin
     id 20
     name lwrist
     direction 1 -4.48997e-011 -9.5942e-028   
     length 1.75507   
     axis 8.48502e-016 90 90   XYZ
    dof ry
    limits (-180.0 0.0)
 end
  begin
     id 21 
     name lhand
     direction 1 -4.48831e-011 -1.90777e-027   
     length 0.706179   
     axis 1.22306e-015 90 90   XYZ
    dof rx rz
    limits (-90.0 90.0)
           (-45.0 45.0)
  end
  begin
     id 22 
     name lfingers
     direction 1 -4.49108e-011 -3.85244e-027   
     length 0.569339   
     axis 2.44611e-015 90 90   XYZ
    dof rx
    limits (0.0 90.0)
  end
  begin
     id 23
     name lthumb
     direction 0.707107 -6.34953e-011 0.707107   
     length 0.817461   
     axis -90 45 -1.62303e-014   XYZ
    dof rx rz
    limits (-45.0 45.0)
           (-45.0 45.0)
  end
  begin
     id 24 
     name rclavicle
     direction -0.905329 0.382405 -0.184787   
     length 3.30787  
     axis 0 0 0   XYZ 
    dof ry rz
    limits (-10.0 20.0)
           (-20.0 0.0)
  end
  begin
     id 25 
     name rhumerus
     direction -1 -4.48953e-011 -9.15316e-029  
     length 5.28721   
     axis 180 30 90   XYZ
    dof rx ry rz
    limits (-90.0 60.0)
           (-90.0 90.0)
           (-90.0 90.0)
  end
  begin
     id 26 
     name rradius
     direction -1 -4.48987e-011 9.37824e-028   
     length 3.50544   
     axis 180 30 90   XYZ
    dof rx
    limits (-10.0 170.0)
  end
  begin
     id 27 
     name rwrist
     direction -1 -4.48967e-011 -9.58414e-028   
     length 1.75272   
     axis 8.48502e-016 -90 -90   XYZ
    dof ry
    limits (-180.0 0.0)
  end
  begin
     id 28
     name rhand
     direction -1 -4.48904e-011 -1.91266e-027   
     length 0.884996   
     axis 1.22306e-015 -90 -90   XYZ
    dof rx rz
    limits (-90.0 90.0)
           (-45.0 45.0)
  end
  begin
     id 29
     name rfingers
     direction -1 -4.4909e-011 -3.85015e-027   
     length 0.713507   
     axis 2.44611e-015 -90 -90   XYZ
    dof rx
    limits (0.0 90.0)
  end
  begin
     id 30
     name rthumb
     direction -0.707107 -6.34853e-011 0.707107   
     length 1.02446   
     axis -90 -45 1.62303e-014   XYZ
    dof rx rz
    limits (-45.0 45.0)
           (-45.0 45.0)
  end
:hierarchy
  begin
    root lhipjoint rhipjoint lowerback
    lhipjoint lfemur
    lfemur ltibia
    ltibia lfoot
    lfoot ltoes
    rhipjoint rfemur
    rfemur rtibia
    rtibia rfoot
    rfoot rtoes
    lowerback upperback
    upperback thorax
    thorax lowerneck lclavicle rclavicle
    lowerneck upperneck
    upperneck head
    lclavicle lhumerus
    lhumerus lradius
    lradius lwrist
    lwrist lhand lthumb
    lhand lfingers
    rclavicle rhumerus
    rhumerus rradius
    rradius rwrist
    rwrist rhand rthumb
    rhand rfingers
  end

#!OML:ASF F:\twosubjects\two\Thursday\Session 1\justin.ASF
:FULLY-SPECIFIED
:DEGREES
1
root 7.37405 9.49854 -20.7832 -23.2204 -2.29647 1.10276
lowerback 38.3387 1.16616 -0.57364
upperback 13.6752 1.28036 1.03959
thorax -3.65315 0.549689 0.940756
lowerneck -21.1391 -5.12407 -10.8089
upperneck 7.94582 -5.30802 10.2946
head 6.40319 -2.07394 4.48325
rclavicle -3.97569e-016 1.59028e-015
rhumerus -5.56582 21.2866 -77.4748
rradius 88.3665
rwrist 9.85122
rhand 10.8094 14.2911
rfingers 7.12502
rthumb 35.8936 -12.0515
lclavicle -3.97569e-016 1.59028e-015
lhumerus -7.68314 -23.8402 81.6117
lradius 85.3088
lwrist -31.9277
lhand -6.32469 35.5773
lfingers 7.12502
lthumb 19.5202 64.6174
rfemur -66.3513 -27.5791 0.912289
rtibia 114.211
rfoot -19.4067 -2.73932
rtoes 17.6279
lfemur -64.09 18.046 0.79958
ltibia 100.15
lfoot -13.78 -20.7849
ltoes -10.6117
2
root 7.37607 9.51341 -20.7788 -23.019 -2.08909 1.21853
lowerback 38.656 1.35102 -0.469085
upperback 13.3096 1.55213 1.00176
thorax -4.1575 0.69247 0.742146
lowerneck -19.5415 -5.01721 -10.183
upperneck 7.3291 -5.41583 10.0526
head 5.93967 -2.17096 4.29439
rclavicle -1.21259e-014 3.57812e-015
rhumerus -6.60624 21.1127 -77.0463
rradius 88.7096
rwrist 9.07602
rhand 10.9618 14.6044
rfingers 7.12502
rthumb 36.038 -11.7028
lclavicle -1.21259e-014 3.57812e-015
lhumerus -8.00303 -25.3328 81.2164
lradius 85.7054
lwrist -29.9705
lhand -5.79246 36.0936
lfingers 7.12502
lthumb 20.0319 65.081
rfemur -65.859 -28.0705 -0.12951
rtibia 114.922
rfoot -19.3331 -2.92108
rtoes 17.7741
lfemur -64.2707 17.8268 0.452673
ltibia 100.058
lfoot -14.3908 -20.516
ltoes -13.5626
3
root 7.37197 9.52409 -20.7711 -22.9295 -2.01481 1.12125
lowerback 39.2649 0.87787 -0.930577
upperback 13.664 0.814487 1.39949
thorax -3.95757 0.29131 1.66338
lowerneck -21.9764 -4.8328 -11.7701
upperneck 8.11923 -4.55418 10.2525
head 6.52707 -1.7238 4.72037
rclavicle -3.97569e-015 -9.14409e-015
rhumerus -4.51054 23.5901 -75.0709
rradius 88.6262
rwrist 8.2113
rhand 10.8923 15.1689
rfingers 7.12502
rthumb 35.9722 -11.1544
lclavicle -3.97569e-015 -9.14409e-015
lhumerus -7.16241 -23.2744 80.6584
lradius 86.2254
lwrist -27.87
lhand -4.45817 36.1014
lfingers 7.12502
lthumb 21.3139 64.9493
rfemur -65.3032 -28.353 -0.924347
rtibia 115.705
rfoot -18.891 -3.23683
rtoes 18.5098
lfemur -64.5417 17.939 0.484273
ltibia 100.241
lfoot -14.1011 -20.8063
ltoes -12.0508
4
root 7.36712 9.5361 -20.7591 -22.6527 -2.12266 0.963061
lowerback 39.4884 0.935024 -0.73207
upperback 13.6226 0.963547 1.49286
thorax -4.07675 0.366872 1.60359
lowerneck -21.7833 -4.80051 -11.5369
upperneck 7.77138 -4.53598 9.95746
head 6.36745 -1.73631 4.58244
rclavicle 1.98785e-015 6.75868e-015
rhumerus -4.29468 23.6008 -74.1464
rradius 88.7832
rwrist 8.03628
rhand 11.6884 15.8087
rfingers 7.12502
rthumb 36.7259 -10.3261
lclavicle 1.98785e-015 6.75868e-015
lhumerus -6.92684 -23.5068 80.0387
lradius 86.9927
lwrist -25.7715
lhand -3.14457 35.9424
lfingers 7.12502
lthumb 22.5752 64.6424
rfemur -65.0147 -28.5243 -1.47948
rtibia 116.508
rfoot -18.595 -3.55706
rtoes 19.6471
lfemur -64.8804 18.3137 0.671827
ltibia 100.365
lfoot -13.6711 -21.1889
ltoes -8.30896
5
root 7.36399 9.54485 -20.744 -22.5223 -2.42178 0.4103
lowerback 39.9248 0.914117 -0.0686524
upperback 13.7125 1.19149 1.65838
thorax -4.11077 0.490118 1.35008
lowerneck -22.0301 -4.86877 -11.3482
upperneck 7.58042 -4.61856 9.78464
head 6.34346 -1.77773 4.48088
rclavicle 5.56597e-015 -5.1684e-015
rhumerus -4.00051 23.3469 -73.1201
rradius 89.2153
rwrist 7.58498
rhand 12.4101 16.1513
rfingers 7.12502
rthumb 37.4085 -9.80647
lclavicle 5.56597e-015 -5.1684e-015
lhumerus -6.54467 -23.6616 79.3322
lradius 87.9213
lwrist -24.1069
lhand -2.12775 35.8894
lfingers 7.12502
lthumb 23.5509 64.4675
rfemur -64.4164 -28.52 -1.70162
rtibia 117.301
rfoot -18.7142 -3.84467
rtoes 21.7082
lfemur -64.7705 18.7321 1.39406
ltibia 100.278
lfoot -14.2384 -21.4489
ltoes -9.06819
6
root 7.36071 9.54568 -20.7317 -22.5911 -2.79171 -0.849649
lowerback 40.6917 0.667611 1.31942
upperback 13.7526 1.43833 1.94539
thorax -4.27621 0.63906 0.842509
lowerneck -22.0037 -4.87523 -10.8871
upperneck 7.3263 -4.70579 9.48475
head 6.24646 -1.83051 4.29298
rclavicle 1.76918e-014 2.22639e-014
rhumerus -4.00612 22.858 -72.2463
rradius 89.9926
rwrist 6.52504
rhand 13.7083 16.4908
rfingers 7.12502
rthumb 38.6344 -9.13292
lclavicle 1.76918e-014 2.22639e-014
lhumerus -5.96373 -23.9756 78.4236
lradius 88.803
lwrist -22.3417
lhand -0.992198 36.0021
lfingers 7.12502
lthumb 24.6397 64.436
rfemur -63.3042 -28.3194 -1.32116
rtibia 118.045
rfoot -18.7935 -4.62432
rtoes 24.3915
lfemur -64.6075 19.1098 2.91554
ltibia 100.211
lfoot -15.0574 -21.6938
ltoes -12.0657
7
root 7.362 9.5594 -20.7283 -22.1679 -2.58817 -0.937092
lowerback 41.0183 0.529171 1.43001
upperback 13.6398 1.32857 2.0093
thorax -4.4949 0.585074 0.891131
lowerneck -22.0651 -4.82133 -11.1799
upperneck 7.29326 -4.57405 9.72461
head 6.24587 -1.75441 4.43695
rclavicle -4.96962e-015 -1.59028e-015
rhumerus -3.82115 22.778 -71.3896
rradius 90.7133
rwrist 4.97299
rhand 15.2593 16.6497
rfingers 7.12502
rthumb 40.0957 -8.54737
lclavicle -4.96962e-015 -1.59028e-015
lhumerus -5.56773 -23.6042 77.6051
lradius 89.7087
lwrist -20.596
lhand -0.478437 36.433
lfingers 7.12502
lthumb 25.132 64.7988
rfemur -62.6872 -28.6023 -2.29432
rtibia 118.738
rfoot -18.1435 -5.01273
rtoes 25.7783
lfemur -65.2102 19.0194 2.78719
ltibia 100.315
lfoot -14.5411 -21.6579
ltoes -9.51811
8
root 7.36584 9.58704 -20.7244 -21.358 -2.21352 -0.00867843
lowerback 41.0005 0.636281 0.561269
upperback 13.4964 1.12074 1.86647
thorax -4.66208 0.465484 1.26355
lowerneck -22.4993 -4.83896 -11.8691
upperneck 7.38969 -4.42266 10.2139
head 6.35825 -1.65095 4.73256
rclavicle -1.98785e-015 8.34896e-015
rhumerus -3.29475 22.8298 -70.3182
rradius 91.4196
rwrist 3.09658
rhand 15.5515 16.3165
rfingers 7.12502
rthumb 40.3705 -8.79674
lclavicle -1.98785e-015 8.34896e-015
lhumerus -5.18463 -22.8012 76.8347
lradius 90.5609
lwrist -19.204
lhand -0.667715 36.9655
lfingers 7.12502
lthumb 24.9507 65.3566
rfemur -62.5779 -28.999 -4.26288
rtibia 119.35
rfoot -17.1277 -4.9665
rtoes 25.6423
lfemur -66.0544 18.878 1.39506
ltibia 100.38
lfoot -13.62 -21.3802
ltoes -4.84462
9
root 7.36621 9.59909 -20.7132 -20.7501 -2.13206 0.438232
lowerback 41.1743 0.875623 0.284813
upperback 13.5273 1.30791 1.83872
thorax -4.68755 0.550101 1.305
lowerneck -22.9129 -4.93656 -11.419
upperneck 7.05822 -4.55835 9.7773
head 6.30546 -1.72766 4.49119
rclavicle -4.77083e-015 -5.56597e-015
rhumerus -2.75818 21.9835 -69.0987
rradius 92.2529
rwrist 1.33887
rhand 15.0994 16.1385
rfingers 7.12502
rthumb 39.9452 -9.10405
lclavicle -4.77083e-015 -5.56597e-015
lhumerus -4.08722 -22.6449 75.7907
lradius 91.2325
lwrist -18.1704
lhand -1.02788 37.6735
lfingers 7.12502
lthumb 24.6055 66.112
rfemur -62.3582 -29.4099 -5.6397
rtibia 119.977
rfoot -16.6357 -4.89408
rtoes 24.3924
lfemur -66.6314 18.9749 0.718692
ltibia 100.397
lfoot -13.4461 -21.2582
ltoes -3.54817
10
root 7.36926 9.59761 -20.7033 -20.284 -1.95214 0.382665
lowerback 41.4632 0.959927 0.484277
upperback 13.2107 1.51137 1.92791
thorax -5.12507 0.652346 1.21411
lowerneck -21.2353 -4.76017 -10.7871
upperneck 5.98914 -4.56202 9.30766
head 5.67618 -1.7892 4.23235
rclavicle 4.77083e-015 -7.95139e-015
rhumerus -3.13769 21.0749 -68.2259
rradius 93.2593
rwrist -0.231702
rhand 15.1368 16.5011
rfingers 7.12502
rthumb 39.9804 -8.73083
lclavicle 4.77083e-015 -7.95139e-015
lhumerus -3.74008 -22.8467 74.9673
lradius 92.061
lwrist -17.4004
lhand -1.90442 38.3672
lfingers 7.12502
lthumb 23.7651 66.9176
rfemur -61.9214 -30.1895 -6.71016
rtibia 120.628
rfoot -16.4514 -4.4757
rtoes 22.1903
lfemur -67.2621 18.886 0.518141
ltibia 100.469
lfoot -14.4204 -20.911
ltoes -9.13528
11
root 7.37975 9.6147 -20.6979 -19.7881 -1.63962 0.424646
lowerback 41.7995 1.17411 1.3646
upperback 12.8204 2.11657 1.59789
thorax -5.62176 0.983142 0.170448
lowerneck -19.3929 -4.93683 -9.36679
upperneck 4.78726 -5.25122 9.08038
head 5.0403 -2.15451 3.86054
rclavicle 1.98785e-014 1.35174e-014
rhumerus -4.38247 18.4777 -67.9595
rradius 94.588
rwrist -1.75603
rhand 15.1627 16.7462
rfingers 7.12502
rthumb 40.0048 -8.47845
lclavicle 1.98785e-014 1.35174e-014
lhumerus -2.69979 -24.602 73.5516
lradius 92.9942
lwrist -16.5488
lhand -2.81925 38.5662
lfingers 7.12502
lthumb 22.8874 67.2279
rfemur -61.1665 -30.7914 -8.04956
rtibia 121.091
rfoot -16.4708 -4.07003
rtoes 19.5256
lfemur -67.8312 18.6121 0.0705341
ltibia 100.461
lfoot -15.7081 -20.4269
ltoes -15.678
12
root 7.38556 9.64251 -20.6882 -19.1766 -1.6951 0.75993
lowerback 42.071 1.12808 0.749655
upperback 12.951 1.83167 1.82421
thorax -5.58195 0.819055 0.835636
lowerneck -20.6177 -4.81338 -10.3504
upperneck 4.82892 -4.74317 9.25925
head 5.22105 -1.8847 4.12505
rclavicle 3.57812e-015 -1.27222e-014
rhumerus -2.72643 18.743 -66.2158
rradius 95.7715
rwrist -3.47455
rhand 13.847 16.7379
rfingers 7.12502
rthumb 38.7652 -8.84893
lclavicle 3.57812e-015 -1.27222e-014
lhumerus -2.00097 -22.5387 72.8275
lradius 94.1089
lwrist -16.1299
lhand -3.51953 38.7231
lfingers 7.12502
lthumb 22.2153 67.4665
rfemur -60.738 -30.7846 -9.23139
rtibia 121.476
rfoot -16.2864 -4.16936
rtoes 15.6512
lfemur -68.2291 18.8186 -0.469318
ltibia 100.391
lfoot -15.7092 -20.5066
ltoes -13.6359
13
root 7.38605 9.66503 -20.676 -18.5053 -1.89379 0.809158
lowerback 42.3857 0.8987 0.289366
upperback 13.1114 1.38603 2.12963
thorax -5.50757 0.574491 1.56975
lowerneck -22.394 -4.6378 -11.6477
upperneck 5.2723 -4.01324 9.4909
head 5.58836 -1.49852 4.49046
rclavicle -1.03368e-014 1.90833e-014
rhumerus -0.464394 19.2018 -64.2816
rradius 96.9545
rwrist -4.99971
rhand 11.5824 16.897
rfingers 7.12502
rthumb 36.6256 -9.26331
lclavicle -1.03368e-014 1.90833e-014
lhumerus -1.46824 -19.7329 72.2151
lradius 95.2803
lwrist -15.6071
lhand -3.89651 38.9956
lfingers 7.12502
lthumb 21.8533 67.7816
rfemur -60.4106 -30.6299 -9.88103
rtibia 121.864
rfoot -15.6418 -4.51773
rtoes 14.0208
lfemur -68.7388 19.198 -0.635002
ltibia 100.351
lfoot -15.5388 -20.5906
ltoes -10.5324
